<svg width="24" height="24" viewBox="0 0 24 24" fill="none" xmlns="http://www.w3.org/2000/svg">
<path fill-rule="evenodd" clip-rule="evenodd" d="M12 1L23.2583 20.5H0.741669L12 1ZM4.20577 18.5H19.7942L12 5L4.20577 18.5Z" fill="#FA491A"/>
<path d="M12.8818 8L12.7318 14.287H11.2682L11.1227 8H12.8818ZM12 17C11.7242 17 11.4879 16.9072 11.2909 16.7217C11.097 16.5362 11 16.3101 11 16.0435C11 15.7826 11.097 15.5594 11.2909 15.3739C11.4879 15.1884 11.7242 15.0957 12 15.0957C12.2697 15.0957 12.503 15.1884 12.7 15.3739C12.9 15.5594 13 15.7826 13 16.0435C13 16.2203 12.953 16.3812 12.8591 16.5261C12.7682 16.671 12.647 16.787 12.4955 16.8739C12.347 16.958 12.1818 17 12 17Z" fill="#FA491A"/>
</svg>
