<svg width="65" height="80" viewBox="0 0 65 80" fill="none" xmlns="http://www.w3.org/2000/svg">
<path fill-rule="evenodd" clip-rule="evenodd" d="M32.5531 76C31.0715 68.8081 28.459 62.8229 25.2951 57.2761C22.9481 53.1616 20.2294 49.3638 17.7138 45.3737C16.874 44.0418 16.1493 42.6347 15.3423 41.2524C13.7288 38.4884 12.4206 35.2835 12.5038 31.1267C12.585 27.0651 13.773 23.807 15.4861 21.143C18.3036 16.7614 23.0231 13.1692 29.3554 12.2251C34.5331 11.4533 39.3874 12.7573 42.8295 14.7477C45.6424 16.3742 47.8211 18.547 49.4768 21.1074C51.2051 23.78 52.3953 26.9373 52.495 31.0556C52.5462 33.1655 52.1969 35.1194 51.7046 36.7403C51.2066 38.3808 50.4055 39.7522 49.6927 41.2168C48.3011 44.0762 46.5568 46.696 44.8059 49.3173C39.5911 57.1256 34.6967 65.0885 32.5533 75.9999L32.5531 76Z" fill="#FA491A"/>
<path d="M32.5 38.1532C36.366 38.1532 39.5 35.0192 39.5 31.1532C39.5 27.2872 36.366 24.1532 32.5 24.1532C28.634 24.1532 25.5 27.2872 25.5 31.1532C25.5 35.0192 28.634 38.1532 32.5 38.1532Z" fill="white"/>
<path d="M3.5 60L60.5 3" stroke="#373A36" stroke-width="6"/>
</svg>
