<svg width="64" height="83" viewBox="0 0 64 83" fill="none" xmlns="http://www.w3.org/2000/svg">
<g filter="url(#filter0_d_49_1677)">
<path d="M18.0597 48.8404L17.2138 49.3737L18.0597 48.8404C17.5489 48.0303 17.0995 47.2234 16.633 46.3857C16.3375 45.8551 16.0351 45.3122 15.7059 44.7483C14.1493 42.0817 12.9253 39.0595 13.0036 35.1467C13.0808 31.2828 14.207 28.2034 15.8272 25.6839L15.8272 25.6839C18.504 21.5211 22.9821 18.1118 29.0029 17.2142C33.9327 16.4793 38.5605 17.7234 41.8289 19.6134C44.4955 21.1553 46.5612 23.2135 48.137 25.6504L48.1371 25.6505C49.7741 28.1819 50.9004 31.1616 50.9953 35.0798C51.0435 37.0666 50.7143 38.9136 50.2478 40.4497L50.2477 40.4498C49.8951 41.6117 49.3911 42.6034 48.841 43.6858C48.6622 44.0377 48.4785 44.3992 48.2935 44.7792C46.9364 47.5677 45.2305 50.1326 43.4743 52.7618L43.4743 52.7619C38.9122 59.5929 34.5307 66.6318 32.0376 75.7011C30.4804 70.1529 28.2493 65.3136 25.6637 60.7806L24.7951 61.2761L25.6637 60.7806C24.1538 58.1335 22.4707 55.5845 20.8068 53.0645C19.8738 51.6514 18.9467 50.2474 18.0597 48.8404Z" fill="#FA491A" stroke="#AE3211" stroke-width="2"/>
<path d="M32 42.1533C35.866 42.1533 39 39.0193 39 35.1533C39 31.2873 35.866 28.1533 32 28.1533C28.134 28.1533 25 31.2873 25 35.1533C25 39.0193 28.134 42.1533 32 42.1533Z" fill="white"/>
</g>
<defs>
<filter id="filter0_d_49_1677" x="-6" y="-9" width="76" height="92" filterUnits="userSpaceOnUse" color-interpolation-filters="sRGB">
<feFlood flood-opacity="0" result="BackgroundImageFix"/>
<feColorMatrix in="SourceAlpha" type="matrix" values="0 0 0 0 0 0 0 0 0 0 0 0 0 0 0 0 0 0 127 0" result="hardAlpha"/>
<feOffset dy="-3"/>
<feGaussianBlur stdDeviation="3"/>
<feComposite in2="hardAlpha" operator="out"/>
<feColorMatrix type="matrix" values="0 0 0 0 0.215686 0 0 0 0 0.227451 0 0 0 0 0.211765 0 0 0 0.8 0"/>
<feBlend mode="normal" in2="BackgroundImageFix" result="effect1_dropShadow_49_1677"/>
<feBlend mode="normal" in="SourceGraphic" in2="effect1_dropShadow_49_1677" result="shape"/>
</filter>
</defs>
</svg>
