<svg width="64" height="80" viewBox="0 0 64 80" fill="none" xmlns="http://www.w3.org/2000/svg">
<path fill-rule="evenodd" clip-rule="evenodd" d="M32.0531 76C30.5715 68.8081 27.959 62.8229 24.7951 57.2761C22.4481 53.1616 19.7294 49.3638 17.2138 45.3737C16.374 44.0418 15.6493 42.6347 14.8423 41.2524C13.2288 38.4884 11.9206 35.2835 12.0038 31.1267C12.085 27.0651 13.273 23.807 14.9861 21.143C17.8036 16.7614 22.5231 13.1692 28.8554 12.2251C34.0331 11.4533 38.8874 12.7573 42.3295 14.7477C45.1424 16.3742 47.3211 18.547 48.9768 21.1074C50.7051 23.78 51.8953 26.9373 51.995 31.0556C52.0462 33.1655 51.6969 35.1194 51.2046 36.7403C50.7066 38.3808 49.9055 39.7522 49.1927 41.2168C47.8011 44.0762 46.0568 46.696 44.3059 49.3173C39.0911 57.1256 34.1967 65.0885 32.0533 75.9999L32.0531 76Z" fill="#FA491A"/>
<path d="M32 38.1533C35.866 38.1533 39 35.0193 39 31.1533C39 27.2873 35.866 24.1533 32 24.1533C28.134 24.1533 25 27.2873 25 31.1533C25 35.0193 28.134 38.1533 32 38.1533Z" fill="white"/>
<path d="M3 60L60 3" stroke="#373A36" stroke-width="6"/>
</svg>
