<svg width="64" height="80" viewBox="0 0 64 80" fill="none" xmlns="http://www.w3.org/2000/svg">
<path fill-rule="evenodd" clip-rule="evenodd" d="M32.0531 72C30.5715 64.8081 27.959 58.8229 24.7951 53.2761C22.4481 49.1616 19.7294 45.3638 17.2138 41.3737C16.374 40.0418 15.6493 38.6347 14.8423 37.2524C13.2288 34.4884 11.9206 31.2835 12.0038 27.1267C12.085 23.0651 13.273 19.807 14.9861 17.143C17.8036 12.7614 22.5231 9.16919 28.8554 8.22513C34.0331 7.45326 38.8874 8.75733 42.3295 10.7477C45.1424 12.3742 47.3211 14.547 48.9768 17.1074C50.7051 19.78 51.8953 22.9373 51.995 27.0556C52.0462 29.1655 51.6969 31.1194 51.2046 32.7403C50.7066 34.3808 49.9055 35.7522 49.1927 37.2168C47.8011 40.0762 46.0568 42.696 44.3059 45.3173C39.0911 53.1256 34.1967 61.0885 32.0533 71.9999L32.0531 72Z" fill="#FA491A"/>
<circle cx="32" cy="28" r="16" fill="white"/>
<path d="M22 28.6327L28.5753 35L42 22" stroke="#00BFB3" stroke-width="4" stroke-linecap="round"/>
</svg>
