<svg width="40" height="40" viewBox="0 0 40 40" fill="none" xmlns="http://www.w3.org/2000/svg">
<path d="M20.8923 17C20.8923 14.418 20.8923 11.9699 20.8923 11.5C20.8923 10.5 20.3923 9 18.8923 9C17.3923 9 16.8923 10.5 16.8923 11.5V26.5C15.3923 25.5 11.3923 22 9.3923 22C7.3923 22 6.3923 24 7.3923 25C8.3923 26 15.5 33.5 16.5 34.5C18 36 19 36.5 24.8923 36.5C30.7846 36.5 32.0568 33.3241 32.5 30.5C32.9432 27.6759 32.8923 22 32.8923 22C32.8923 20.4 31.7673 19.5 30.8923 19.5C29.8923 19.5 28.9863 20.5 28.9863 21.5M20.8923 17C20.8923 18.8137 20.8923 20.6934 20.8923 22V17ZM20.8923 17C20.8923 16.5 21.6923 15.5 22.8923 15.5C24.0923 15.5 24.8923 16.5 24.8923 17C24.8923 19 24.8923 22 24.8923 22C24.8923 21.5 24.8923 20.5 24.8923 19.7344C24.8923 18.5 25.3923 17.5 26.8923 17.5C28.3923 17.5 28.9863 18.5 28.9863 19.6672C28.9863 20.038 28.9863 21.156 28.9863 21.5M28.9863 21.5C28.9863 21.9285 28.9863 21.5783 28.9863 22V21.5Z" stroke="#373A36" stroke-width="1.5" stroke-linejoin="round"/>
<path fill-rule="evenodd" clip-rule="evenodd" d="M13.25 8.99999C13.25 5.97777 15.7 3.52777 18.7222 3.52777C21.7444 3.52777 24.1944 5.97777 24.1944 8.99999C24.1944 10.313 23.732 11.5181 22.9611 12.4611L24.0259 13.5259C25.0663 12.308 25.6944 10.7273 25.6944 8.99999C25.6944 5.14934 22.5729 2.02777 18.7222 2.02777C14.8716 2.02777 11.75 5.14934 11.75 8.99999C11.75 10.7415 12.3885 12.3339 13.4442 13.5558L14.5085 12.4915C13.7225 11.5441 13.25 10.3272 13.25 8.99999Z" fill="#373A36"/>
</svg>
